<?xml version="1.0" encoding="utf-8"?>
<svg xmlns="http://www.w3.org/2000/svg" viewBox="0 0 448 512">
  <path d="M 342 446 C 369.6 438.9 90.4 438.9 118 446 L 118 480 C 118 497.7 116.3 512 134 512 L 150 512 C 167.7 512 168 497.7 168 480 L 168 448 L 294 448 L 294 480 C 294 497.7 293.3 512 311 512 L 327 512 C 344.7 512 342 497.7 342 480 L 342 446 Z" style="fill: rgb(169, 169, 169);"/>
  <path d="M 96 27 C 43 27 0 70 0 123 L 22 384 C 22 413.8 42.4 438.9 70 446 L 128 448 L 320 448 L 379 446 C 406.6 438.9 427 413.8 427 384 L 448 123 C 448 70 405 27 352 27 L 96 27 Z M 64 176 C 64 158.3 78.3 144 96 144 L 200 144 L 214 256 L 96 256 C 78.3 256 64 241.7 64 224 L 64 176 Z M 237 256 L 248 144 L 352 144 C 369.7 144 384 158.3 384 176 L 384 224 C 384 241.7 369.7 256 352 256 L 237 256 Z" style="fill: rgb(255, 255, 255); stroke-width: 5px; stroke: rgb(4, 6, 0);"/>
  <text style="fill: rgb(255, 0, 0); font-family: Arial, sans-serif; font-size: 79px; font-weight: 700; white-space: pre;" x="145.748" y="346.484">RTD</text>
</svg>